name C:\Users\u0101727\Documents\MyRepositories\upper-imu-dc\Results\main_tracking\Case_46\FLX02_angularVelocities_groundFrame.mot
datacolumns 4
datarows 141
range 3.76000000 5.16000000
endheader 
time	radius_imu_x	radius_imu_y	radius_imu_z	
          3.76000000	          0.05005421	         -0.23740142	         -0.04444295	
          3.77000000	          0.05505527	         -0.23453311	         -0.06091222	
          3.78000000	          0.06030403	         -0.22984921	         -0.07764281	
          3.79000000	          0.06575915	         -0.22302267	         -0.09462133	
          3.80000000	          0.07137710	         -0.21381987	         -0.11185505	
          3.81000000	          0.07711817	         -0.20212289	         -0.12936813	
          3.82000000	          0.08295159	         -0.18794466	         -0.14719647	
          3.83000000	          0.08885858	         -0.17143421	         -0.16538200	
          3.84000000	          0.09483249	         -0.15286726	         -0.18396677	
          3.85000000	          0.10087597	         -0.13261803	         -0.20298659	
          3.86000000	          0.10699557	         -0.11111393	         -0.22246427	
          3.87000000	          0.11319438	         -0.08878283	         -0.24240356	
          3.88000000	          0.11946413	         -0.06600660	         -0.26278513	
          3.89000000	          0.12577800	         -0.04309102	         -0.28356575	
          3.90000000	          0.13208612	         -0.02025402	         -0.30467996	
          3.91000000	          0.13831474	          0.00237333	         -0.32604252	
          3.92000000	          0.14436973	          0.02474080	         -0.34754936	
          3.93000000	          0.15014403	          0.04687063	         -0.36907678	
          3.94000000	          0.15552785	          0.06884372	         -0.39048064	
          3.95000000	          0.16042008	          0.09077710	         -0.41159840	
          3.96000000	          0.16473910	          0.11279400	         -0.43225520	
          3.97000000	          0.16843162	          0.13499268	         -0.45227394	
          3.98000000	          0.17147840	          0.15742077	         -0.47148758	
          3.99000000	          0.17389672	          0.18006107	         -0.48975130	
          4.00000000	          0.17573982	          0.20283159	         -0.50695161	
          4.01000000	          0.17709326	          0.22559818	         -0.52301106	
          4.02000000	          0.17806827	          0.24819330	         -0.53788839	
          4.03000000	          0.17879164	          0.27043253	         -0.55157554	
          4.04000000	          0.17939321	          0.29212291	         -0.56409320	
          4.05000000	          0.17999240	          0.31306191	         -0.57548600	
          4.06000000	          0.18068630	          0.33303149	         -0.58581754	
          4.07000000	          0.18154139	          0.35179504	         -0.59516469	
          4.08000000	          0.18259107	          0.36910399	         -0.60361093	
          4.09000000	          0.18383885	          0.38471556	         -0.61123949	
          4.10000000	          0.18526592	          0.39841717	         -0.61812769	
          4.11000000	          0.18683992	          0.41004934	         -0.62434391	
          4.12000000	          0.18852224	          0.41952047	         -0.62994779	
          4.13000000	          0.19027286	          0.42681146	         -0.63499353	
          4.14000000	          0.19205281	          0.43197170	         -0.63953481	
          4.15000000	          0.19382562	          0.43511017	         -0.64362917	
          4.16000000	          0.19555837	          0.43638472	         -0.64733985	
          4.17000000	          0.19722212	          0.43599072	         -0.65073435	
          4.18000000	          0.19879112	          0.43414922	         -0.65388028	
          4.19000000	          0.20024107	          0.43109542	         -0.65684007	
          4.20000000	          0.20154685	          0.42706832	         -0.65966667	
          4.21000000	          0.20268096	          0.42230203	         -0.66240163	
          4.22000000	          0.20361350	          0.41701969	         -0.66507600	
          4.23000000	          0.20431464	          0.41143058	         -0.66771273	
          4.24000000	          0.20475908	          0.40572948	         -0.67032983	
          4.25000000	          0.20493118	          0.40009526	         -0.67294345	
          4.26000000	          0.20482938	          0.39468738	         -0.67557052	
          4.27000000	          0.20446935	          0.38964240	         -0.67822929	
          4.28000000	          0.20388664	          0.38507413	         -0.68093608	
          4.29000000	          0.20313976	          0.38108017	         -0.68369771	
          4.30000000	          0.20231366	          0.37775354	         -0.68650070	
          4.31000000	          0.20152288	          0.37519439	         -0.68930040	
          4.32000000	          0.20091178	          0.37351522	         -0.69201330	
          4.33000000	          0.20064982	          0.37283436	         -0.69451551	
          4.34000000	          0.20092028	          0.37325653	         -0.69664867	
          4.35000000	          0.20190344	          0.37484558	         -0.69823252	
          4.36000000	          0.20375748	          0.37759900	         -0.69908155	
          4.37000000	          0.20660176	          0.38143430	         -0.69902240	
          4.38000000	          0.21050586	          0.38619210	         -0.69790898	
          4.39000000	          0.21548619	          0.39165454	         -0.69563339	
          4.40000000	          0.22150965	          0.39757288	         -0.69213132	
          4.41000000	          0.22850212	          0.40369706	         -0.68738199	
          4.42000000	          0.23635952	          0.40980117	         -0.68140368	
          4.43000000	          0.24495853	          0.41570124	         -0.67424693	
          4.44000000	          0.25416501	          0.42126347	         -0.66598803	
          4.45000000	          0.26383848	          0.42640280	         -0.65672441	
          4.46000000	          0.27383290	          0.43107361	         -0.64657216	
          4.47000000	          0.28399585	          0.43525654	         -0.63566454	
          4.48000000	          0.29416815	          0.43894443	         -0.62415029	
          4.49000000	          0.30418515	          0.44212884	         -0.61219183	
          4.50000000	          0.31387918	          0.44478663	         -0.59996387	
          4.51000000	          0.32308134	          0.44686638	         -0.58765346	
          4.52000000	          0.33162150	          0.44827531	         -0.57546211	
          4.53000000	          0.33932646	          0.44887005	         -0.56360907	
          4.54000000	          0.34601865	          0.44845504	         -0.55233368	
          4.55000000	          0.35151774	          0.44679181	         -0.54189409	
          4.56000000	          0.35564708	          0.44361891	         -0.53255997	
          4.57000000	          0.35824440	          0.43867882	         -0.52459915	
          4.58000000	          0.35917410	          0.43174495	         -0.51826063	
          4.59000000	          0.35833736	          0.42264154	         -0.51375775	
          4.60000000	          0.35567685	          0.41125176	         -0.51125569	
          4.61000000	          0.35117701	          0.39751604	         -0.51086521	
          4.62000000	          0.34486443	          0.38142836	         -0.51264216	
          4.63000000	          0.33681273	          0.36303783	         -0.51659062	
          4.64000000	          0.32715091	          0.34245615	         -0.52266789	
          4.65000000	          0.31607018	          0.31986637	         -0.53079039	
          4.66000000	          0.30382534	          0.29552855	         -0.54084004	
          4.67000000	          0.29072872	          0.26977962	         -0.55267065	
          4.68000000	          0.27713604	          0.24302514	         -0.56611379	
          4.69000000	          0.26342249	          0.21571939	         -0.58098504	
          4.70000000	          0.24994979	          0.18833356	         -0.59709143	
          4.71000000	          0.23703191	          0.16131965	         -0.61423944	
          4.72000000	          0.22491168	          0.13508321	         -0.63224081	
          4.73000000	          0.21375603	          0.10997169	         -0.65091388	
          4.74000000	          0.20366657	          0.08627438	         -0.67008173	
          4.75000000	          0.19469729	          0.06422522	         -0.68957075	
          4.76000000	          0.18687204	          0.04400337	         -0.70921174	
          4.77000000	          0.18019853	          0.02573118	         -0.72884387	
          4.78000000	          0.17467805	          0.00947168	         -0.74831955	
          4.79000000	          0.17031167	         -0.00477259	         -0.76750817	
          4.80000000	          0.16710323	         -0.01705882	         -0.78629759	
          4.81000000	          0.16505898	         -0.02750215	         -0.80459428	
          4.82000000	          0.16418339	         -0.03627327	         -0.82232359	
          4.83000000	          0.16447246	         -0.04359328	         -0.83942965	
          4.84000000	          0.16590929	         -0.04972187	         -0.85587297	
          4.85000000	          0.16846656	         -0.05493535	         -0.87162323	
          4.86000000	          0.17211843	         -0.05949559	         -0.88664743	
          4.87000000	          0.17685905	         -0.06361569	         -0.90089649	
          4.88000000	          0.18272055	         -0.06743151	         -0.91429503	
          4.89000000	          0.18978227	         -0.07098745	         -0.92673829	
          4.90000000	          0.19816502	         -0.07424049	         -0.93809805	
          4.91000000	          0.20800944	         -0.07708137	         -0.94823679	
          4.92000000	          0.21944257	         -0.07936726	         -0.95702720	
          4.93000000	          0.23254097	         -0.08095842	         -0.96437306	
          4.94000000	          0.24730029	         -0.08175141	         -0.97022671	
          4.95000000	          0.26361797	         -0.08170336	         -0.97459888	
          4.96000000	          0.28129129	         -0.08084509	         -0.97755920	
          4.97000000	          0.30002835	         -0.07928353	         -0.97922857	
          4.98000000	          0.31946762	         -0.07719517	         -0.97976652	
          4.99000000	          0.33919986	         -0.07481428	         -0.97935777	
          5.00000000	          0.35878801	         -0.07241801	         -0.97820061	
          5.01000000	          0.37778563	         -0.07030824	         -0.97649735	
          5.02000000	          0.39575914	         -0.06878782	         -0.97444503	
          5.03000000	          0.41231891	         -0.06813043	         -0.97222454	
          5.04000000	          0.42716013	         -0.06854605	         -0.96998769	
          5.05000000	          0.44010787	         -0.07014785	         -0.96784282	
          5.06000000	          0.45115603	         -0.07292784	         -0.96584151	
          5.07000000	          0.46048801	         -0.07674838	         -0.96396977	
          5.08000000	          0.46846922	         -0.08135318	         -0.96214760	
          5.09000000	          0.47561001	         -0.08640036	         -0.96023844	
          5.10000000	          0.48250307	         -0.09151054	         -0.95806790	
          5.11000000	          0.48974671	         -0.09631935	         -0.95544904	
          5.12000000	          0.49786934	         -0.10052634	         -0.95220863	
          5.13000000	          0.50726614	         -0.10393081	         -0.94820995	
          5.14000000	          0.51815460	         -0.10645055	         -0.94337083	
          5.15000000	          0.53055168	         -0.10812255	         -0.93767633	
          5.16000000	          0.54427387	         -0.10908747	         -0.93118612	
